<?xml version="1.0" encoding="UTF-8"?>
<!-- Generated by Pixelmator Pro 3.2.3 -->
<svg width="200" height="215" viewBox="0 0 200 215" xmlns="http://www.w3.org/2000/svg" xmlns:xlink="http://www.w3.org/1999/xlink">
    <path id="Path" fill="#303046" stroke="none" d="M 45.033501 97.3153 C 39.622501 95.952202 35.161499 92.2761 30.907101 88.682503 C 22.480801 81.578003 14.0132 74.473511 5.58691 67.410309 C 14.4676 68.484192 23.554701 68.071106 32.311401 66.129791 C 35.244099 65.468903 38.259399 64.642792 40.6138 62.742798 C 43.298698 60.594894 44.909599 57.414398 46.272701 54.275208 C 52.261902 40.809601 56.2686 24.452698 48.5858 11.895905 C 53.955502 21.230896 60.233898 30.070297 67.255798 38.207397 C 77.747299 23.915802 90.180199 11.028503 104.058998 0 C 102.530998 8.137146 104.182999 16.811295 108.560997 23.833206 C 110.336998 26.641907 112.650002 29.326706 115.748001 30.483307 C 119.960999 32.052902 124.669998 30.607208 128.882996 28.996307 C 139.828995 24.907104 150.485992 19.991699 160.729996 14.374207 C 151.352997 22.098297 141.274994 31.102905 140.117996 43.205292 C 139.912003 45.270599 140.160004 47.707703 141.811996 48.946808 C 143.175003 49.938202 144.992004 49.855499 146.686005 49.731598 C 159.904007 48.699005 173.121002 47.625 186.339005 46.5923 C 179.729996 51.1772 173.451996 56.299103 167.669006 61.875305 C 165.645004 63.858002 163.621002 67.245102 165.686005 69.186401 C 166.884003 70.301697 168.742996 70.136398 170.354004 69.929901 C 178.945007 68.897202 187.742996 69.682098 196.046005 72.1604 C 197.408997 72.573502 198.895996 73.110397 199.598007 74.3909 C 200.919998 76.70401 198.731003 79.388794 196.707001 81.123596 C 184.852005 91.202103 171.800003 99.876198 157.880005 106.898003 C 148.957993 111.400002 139.623001 115.282997 131.774994 121.478996 C 127.355003 124.989998 123.224998 129.285995 117.731003 130.565994 C 110.916 132.136002 103.975998 128.501007 98.400002 124.288002 C 92.782501 120.074997 87.495399 115.035004 80.803902 113.094002 C 75.268997 111.483002 69.1558 112.143997 63.8274 109.955002 C 55.648998 106.609001 50.155399 96.943604 41.316002 96.737099"/>
    <path id="path1" fill="#ffffff" stroke="none" d="M 182.25 101.362999 C 181.382996 106.113998 179.276001 110.574997 177.046005 114.870003 C 173.865005 121.025002 170.436996 127.014 166.802002 132.921005 C 165.190994 135.522995 163.455994 138.207993 160.977997 140.024994 C 157.302002 142.710007 152.468994 143.164001 147.884003 142.585999 C 144.910004 146.056 141.895004 149.524994 138.259995 152.334 C 137.102997 153.242996 135.863998 154.069 134.460007 154.565002 C 130.535995 155.886993 126.074997 153.985992 122.027 154.028 C 121.737999 154.399002 121.406998 154.729996 121.035004 155.059998 C 115.087997 160.677994 107.032997 163.940994 98.8545 164.024002 C 91.832603 164.106003 84.851997 161.834 79.151901 157.703995 C 77.912697 158.570999 76.797401 159.645004 75.888702 160.884003 C 72.997398 164.725998 74.980003 168.649994 75.4757 174.309006 C 75.186501 174.350006 74.938698 174.432999 74.690903 174.473999 C 76.921402 178.645996 78.284401 183.272003 78.656197 188.022003 C 73.038696 187.856995 67.421097 188.807007 62.134102 190.830994 L 62.257999 191.160995 C 60.3992 188.311005 58.912201 185.212997 57.797001 181.949997 C 57.6731 181.578003 57.549198 181.164993 57.5079 180.751999 C 56.351299 181.371994 55.236099 182.033005 54.1208 182.694 C 47.0989 177.324005 40.531399 171.128006 36.318199 163.363007 C 32.1464 155.597 30.618099 146.056 33.881199 137.835999 C 36.855202 130.401001 44.290199 124.617996 52.179501 124.494003 C 50.5686 120.446999 49.783798 116.027 49.949001 111.690002 C 50.2794 102.726997 54.492599 94.259003 60.275299 87.361 C 60.605801 86.947906 60.977501 86.53479 61.307899 86.162994 C 55.029499 78.645508 48.709801 71.169189 42.4314 63.651596 C 57.9622 50.5578 75.145203 39.364105 93.443497 30.483398 C 95.3022 29.574707 97.573997 28.707306 99.267601 29.863892 C 99.969704 30.359497 100.464996 31.144394 100.919998 31.887894 C 108.478996 44.527298 116.038002 57.208008 123.596001 69.847397 C 131.238007 73.193207 137.888 78.975998 141.895004 86.328308 C 142.761993 87.897903 143.505997 89.550102 144.084 91.243599 C 144.373001 90.995796 144.662003 90.747902 144.910004 90.500099 C 149.867004 86.204407 155.567001 82.486908 162.009995 81.330292 C 168.453995 80.215103 175.764999 82.156403 179.606003 87.484802 C 182.539001 91.3675 183.117004 96.613297 182.25 101.362999 Z M 100.919998 163.981995 C 96.3349 163.981995 92.658699 175.259003 92.658699 189.179001 C 92.658699 203.098999 96.376198 214.375 100.919998 214.375 C 105.462997 214.375 109.181 203.098999 109.181 189.179001 C 109.181 175.259003 105.504997 163.981995 100.919998 163.981995 Z M 55.401299 185.667999 C 52.3447 186.494003 51.394699 192.854996 53.294701 199.835007 C 55.194801 206.815994 59.201401 211.854996 62.299301 210.988007 C 65.355904 210.162003 66.305901 203.800995 64.4058 196.820007 C 62.505798 189.798004 58.457901 184.800003 55.401299 185.667999 Z M 137.888 180.214996 C 134.707993 179.884995 131.567993 185.460999 130.824997 192.690002 C 130.080994 199.917999 132.063995 206.031006 135.203003 206.320007 C 138.384003 206.651001 141.522995 201.074005 142.266006 193.845993 C 143.009995 186.658997 141.026993 180.546005 137.888 180.214996 Z"/>
    <path id="path2" fill="#ffffff" stroke="none" d="M 168.123001 158.406006 C 167.421005 157.992996 168.082001 156.919006 168.742996 157.332001 C 173.369003 160.098999 177.994995 162.908005 182.621002 165.675003 C 183.322998 166.087997 182.662994 167.162003 182.001999 166.748993 C 177.375 163.981995 172.748993 161.173004 168.123001 158.406006 Z M 161.514008 165.345001 C 164.158005 167.988007 166.800995 170.632004 169.445007 173.276001 C 170.022995 173.854004 170.889999 172.945007 170.311996 172.408005 C 167.669006 169.764999 165.024994 167.121002 162.382004 164.477997 C 161.802994 163.899002 160.936005 164.766998 161.514008 165.345001 Z M 21.530399 167.244995 C 16.739 169.352005 11.9476 171.498993 7.15616 173.606003 C 6.41266 173.936005 7.07355 175.009995 7.77574 174.679993 C 12.5672 172.572998 17.358601 170.425995 22.15 168.319 C 22.8522 167.988007 22.232599 166.955994 21.530399 167.244995 Z M 24.174 112.308998 C 16.4086 113.795998 8.47792 114.291 0.588601 113.754997 C -0.1962 113.712997 -0.1962 114.952003 0.588601 114.994003 C 8.60184 115.530998 16.656401 114.994003 24.5044 113.507004 C 25.2892 113.383003 24.958799 112.184998 24.174 112.308998 Z M 21.3239 120.280998 C 17.8955 120.983002 14.4259 121.643997 10.9976 122.346001 C 10.2127 122.511002 10.5432 123.709 11.328 123.543999 C 14.7563 122.842003 18.226 122.181 21.654301 121.478996 C 22.4391 121.313004 22.1087 120.115997 21.3239 120.280998 Z M 118.184998 32.796097 C 119.218002 30.400406 120.25 27.963303 121.282997 25.567596 C 121.406998 25.278503 121.364998 24.906708 121.075996 24.700195 C 120.828003 24.535004 120.374001 24.617599 120.209 24.906708 C 119.176003 27.302399 118.143997 29.739395 117.111 32.135101 C 116.987 32.424301 117.028 32.796097 117.317001 33.002594 C 117.565002 33.167801 118.019997 33.126495 118.184998 32.796097 Z M 47.346199 26.558899 C 45.611401 24.493698 43.876598 22.428406 42.183102 20.363098 C 41.976601 20.115295 41.522202 20.156601 41.315701 20.363098 C 41.067799 20.610901 41.1092 20.982697 41.315701 21.230606 C 43.050499 23.295807 44.785301 25.361099 46.478802 27.426392 C 46.685398 27.674194 47.139702 27.632904 47.346199 27.426392 C 47.594101 27.178497 47.552799 26.806793 47.346199 26.558899 Z M 34.582901 23.378403 C 37.6395 25.815399 40.6548 28.293793 43.711399 30.730804 C 44.331001 31.226501 45.198399 30.358994 44.5788 29.863297 C 41.522202 27.4263 38.506901 24.948105 35.450298 22.511108 C 34.8307 22.015396 33.963299 22.882797 34.582901 23.378403 Z"/>
    <path id="path3" fill="#3f4254" stroke="none" d="M 121.985001 164.272003 C 122.315002 170.591003 122.356003 176.910995 122.109001 183.231003 C 122.109001 183.725998 121.571999 183.891998 121.240997 183.768005 L 121.199997 183.768005 C 117.565002 184.098007 113.93 184.429001 110.294998 184.759003 C 109.510002 184.841995 109.510002 183.602005 110.294998 183.520004 C 113.848 183.188995 117.358002 182.858994 120.911003 182.570007 C 121.116997 176.457001 121.075996 170.343994 120.746002 164.272003 C 119.011002 164.188995 117.317001 164.106003 115.582001 163.940994 C 114.797997 163.858994 114.797997 162.619003 115.582001 162.701996 C 117.482002 162.867004 119.424004 162.990997 121.323997 163.031998 L 121.323997 162.785004 C 121.323997 162.867004 121.323997 162.949997 121.323997 163.031998 C 127.725998 163.238998 134.128006 162.867004 140.488998 161.917007 C 141.274002 161.792999 141.604996 162.990997 140.820007 163.115005 C 134.582993 164.065002 128.304001 164.436996 121.985001 164.272003 Z M 105.172997 190.830994 C 105.008003 191.615997 106.206001 191.945999 106.371002 191.160995 C 107.487 185.957001 107.238998 180.546005 105.709999 175.423996 C 105.462997 174.681 104.306 174.970001 104.513 175.755005 C 106 180.669998 106.247002 185.873993 105.172997 190.830994 Z M 98.688499 169.104004 C 96.499298 172.574005 95.384003 176.705002 95.590599 180.794006 C 95.631897 181.578995 96.871002 181.578995 96.829697 180.794006 C 96.664497 176.910995 97.655899 173.028 99.762398 169.723999 C 100.175003 169.063004 99.101501 168.442993 98.688499 169.104004 Z M 137.143997 184.016006 C 137.929001 183.684998 138.341995 184.345993 138.507004 185.007004 C 139.126007 186.990005 139.25 189.136993 138.919998 191.160995 C 138.878998 191.492004 139.003006 191.822006 139.332993 191.904999 C 139.621994 191.987 140.035004 191.822006 140.076004 191.492004 C 140.283005 190.169998 140.365997 188.848007 140.242004 187.485001 C 140.117996 186.246002 139.910995 184.882996 139.332993 183.768005 C 138.755005 182.735001 137.598007 182.363007 136.524002 182.858994 C 135.367996 183.395996 134.955002 184.634995 134.623993 185.75 C 134.417999 186.535004 135.615005 186.865997 135.822006 186.080994 C 136.110992 185.378998 136.358994 184.345993 137.143997 184.016006 Z M 55.896198 200.537994 C 55.606998 200.619995 55.3592 200.992004 55.483101 201.281006 C 56.433102 203.841995 57.7962 206.238007 59.4897 208.386002 C 59.8615 208.880997 60.3158 209.294006 60.935398 209.460007 C 61.513699 209.584 62.133301 209.460007 62.628899 209.128998 C 63.744202 208.427002 64.033302 207.104996 64.198502 205.906998 C 64.239799 205.576996 64.115898 205.246994 63.7855 205.164001 C 63.4963 205.080994 63.083302 205.246994 63.042 205.576996 C 62.918098 206.485992 62.794102 207.641998 61.926701 208.138 C 61.018002 208.675003 60.357101 207.518005 59.902802 206.899002 C 58.581001 205.080994 57.507 203.057007 56.680901 200.951004 C 56.556999 200.662003 56.226601 200.455002 55.896198 200.537994 Z M 181.339996 106.940002 C 179.895004 110.822998 177.953003 114.540001 175.970993 118.175003 C 173.906006 122.015999 171.757996 125.816002 169.526993 129.533997 C 167.503006 132.962006 165.520996 136.720993 162.546997 139.447006 C 159.903 141.884003 156.475006 143.041 152.921997 143.289001 C 151.311005 143.412003 149.701004 143.330002 148.130997 143.164993 C 146.395996 145.188995 144.660995 147.171005 142.802994 149.070999 C 141.274002 150.600006 139.621994 152.128006 137.845993 153.408005 C 137.557007 153.078003 137.268005 152.789001 136.979004 152.5 C 137.061005 152.417007 137.143997 152.376007 137.268005 152.292999 C 140.944 149.608002 144 146.097 146.973999 142.669006 C 144.703003 141.511993 142.348007 140.479996 139.953003 139.612 C 137.598007 138.785995 135.201996 138.125 132.807007 137.587997 C 131.690994 137.341003 130.410995 137.009995 129.337006 137.464005 C 128.923996 137.630005 128.634995 137.878006 128.345993 138.167007 C 128.345993 138.207993 128.345993 138.248993 128.345993 138.291 C 128.386993 139.612 127.560997 140.727997 126.445999 141.306 C 124.545998 144.858002 122.686996 148.451996 120.828003 152.003998 C 120.332001 152.417007 119.836998 152.871002 119.424004 153.367004 C 119.382004 153.449997 119.341003 153.531998 119.300003 153.615005 L 118.763 154.440994 C 118.68 154.481995 118.598 154.481995 118.514999 154.524002 C 118.390999 154.688995 118.266998 154.854004 118.142998 155.061005 C 118.060997 154.977997 117.977997 154.854004 117.977997 154.729996 C 114.920998 155.763 111.575996 155.968994 108.271004 155.763 C 107.320999 155.720993 106.371002 155.639008 105.462997 155.556 C 105.668999 157.001999 105.338997 158.488998 104.306 159.604004 C 103.563004 160.429993 102.570999 160.966995 101.497002 161.091003 C 101.621002 161.792999 101.704002 162.494995 101.828003 163.197998 C 106.371002 162.742996 110.791 161.298004 114.755997 158.985001 C 115.5 158.529999 116.242996 158.076004 116.945 157.580002 C 116.738998 158.158005 116.573997 158.778 116.449997 159.397995 C 115.582001 159.934998 114.714996 160.429993 113.806 160.884995 C 110.501999 162.537003 106.990997 163.692993 103.356003 164.229996 C 107.155998 167.203995 109.841003 177.076004 109.841003 189.095993 C 109.841003 189.384995 109.841003 189.716003 109.841003 190.005005 C 111.864998 189.921997 113.889 189.964005 115.872002 190.087006 C 120.746002 190.459 125.578003 191.574005 130.162994 193.350998 C 130.162994 193.102997 130.203995 192.854996 130.246002 192.565994 C 131.031006 184.882996 134.459 179.182999 138.011002 179.554993 C 141.563004 179.925995 143.753006 186.205002 142.968002 193.888 C 142.595993 197.440002 141.645996 200.785995 140.283005 203.181 C 138.919998 205.617996 137.225998 206.899002 135.574005 206.899002 C 135.449997 206.899002 135.367996 206.899002 135.244003 206.899002 C 133.468002 206.733994 131.981003 205.039993 131.072006 202.231003 C 130.369995 200.082993 130.080994 197.440002 130.162994 194.630997 C 123.720001 192.110992 116.779999 190.914001 109.882004 191.244003 C 109.510002 204.667999 105.751999 214.871002 101.001999 214.871002 C 96.334099 214.871002 92.6166 204.957001 92.162201 191.822006 C 88.610001 192.070007 85.057701 192.565994 81.546799 193.268005 C 81.464203 193.309006 81.422798 193.309006 81.340202 193.309006 C 81.298897 194.093994 81.257599 194.878998 81.257599 195.664001 C 81.216301 196.449005 79.977203 196.449005 80.018501 195.664001 C 80.101097 193.143997 80.224998 190.582993 80.307602 188.063004 C 80.307602 187.608994 80.720703 187.403 81.0924 187.485001 C 81.133698 187.320007 81.257599 187.154999 81.505501 187.113998 C 84.975098 186.121994 88.610001 185.585007 92.203499 185.544006 C 92.657898 175.548004 95.012299 167.535004 98.192802 164.518997 C 96.9123 164.518997 95.590599 164.395996 94.310097 164.229996 C 88.940399 163.528 83.777298 161.462997 79.316299 158.365005 C 78.366302 159.067001 77.498901 159.893005 76.755402 160.843002 C 75.350998 162.619003 74.979202 164.684998 75.185799 166.914993 C 75.268402 167.658997 75.350998 168.401993 75.474899 169.145996 C 75.681396 169.972 75.887901 170.757004 76.0532 171.582993 C 76.094498 171.789001 76.0532 171.953995 75.970497 172.078003 C 76.094498 172.781006 76.177101 173.483002 76.259697 174.184998 C 76.301003 174.432999 76.0532 174.722 75.805298 174.763 L 75.764 174.763 C 76.383598 175.960999 76.920601 177.242004 77.374901 178.522003 C 78.490196 181.537003 79.151001 184.675995 79.398903 187.897995 C 79.398903 188.022003 79.357597 188.145996 79.275002 188.270004 C 78.903198 187.815994 78.490196 187.360992 78.035797 186.990005 C 77.581497 182.817993 76.3423 178.770004 74.4422 175.052002 C 68.824699 176.291 63.372398 178.274002 58.333199 180.959 C 58.4571 181.619995 58.787498 182.322006 58.994099 182.858994 C 59.324501 183.768005 59.696301 184.675995 60.109299 185.544006 C 60.274502 185.916 60.481098 186.328995 60.646301 186.699997 C 60.5224 186.824005 60.398399 186.947998 60.3158 187.072006 C 60.5224 187.279007 60.687599 187.526993 60.8941 187.733002 C 62.505001 189.757004 63.909401 192.565994 64.8181 195.705002 C 69.733398 195.828995 74.648804 195.994003 79.564102 196.242004 C 80.3489 196.283005 80.3489 197.522003 79.564102 197.481003 C 74.772697 197.233002 69.940002 197.067993 65.148499 196.944 C 67.007301 204.214005 65.8507 210.492004 62.463699 211.401001 C 62.174599 211.483994 61.926701 211.524994 61.6376 211.524994 C 58.3745 211.524994 54.574402 206.651001 52.715599 199.794006 C 50.6917 192.358994 51.8069 185.792007 55.2766 184.841995 C 56.3918 184.552994 57.589699 184.841995 58.787498 185.709 C 58.167999 184.345993 57.589699 182.942001 57.176601 181.496002 C 56.3092 181.992004 55.400501 182.487 54.574402 183.024002 C 54.409199 183.147995 54.119999 183.147995 53.9548 183.024002 C 48.998199 179.223999 44.248001 175.052002 40.365299 170.136993 C 33.591301 161.544998 29.419399 149.979996 32.847801 139.117004 C 35.408699 131.020996 42.9263 124.247002 51.476501 123.709999 C 50.278599 120.404999 49.576401 116.893997 49.493801 113.342003 C 49.2873 104.130997 53.252602 95.291702 58.870098 88.145897 C 59.448399 87.402397 60.068001 86.658905 60.687599 85.956696 C 54.5331 78.604309 48.337299 71.251999 42.1828 63.899704 C 41.976299 63.651794 41.8936 63.238708 42.1828 63.032196 C 42.9263 62.371307 43.711102 61.751801 44.495899 61.132202 C 50.650398 56.093002 57.011398 51.342896 63.6203 46.881897 C 70.229103 42.420898 77.044502 38.331604 84.025101 34.531494 C 85.759903 33.581497 87.536003 32.672791 89.312202 31.764099 C 91.046997 30.896698 92.740501 29.946594 94.516602 29.2444 C 96.086304 28.583496 97.945 28.170593 99.514603 28.996704 C 100.299004 29.409698 100.835999 30.111908 101.291 30.814102 C 101.869003 31.681503 102.364998 32.590195 102.902 33.498901 C 107.403999 41.0578 111.946999 48.616699 116.449997 56.175598 C 119.052002 60.512695 121.612999 64.849701 124.214996 69.145401 C 128.139008 70.88031 131.774002 73.234589 134.955002 76.126007 C 139.001999 79.8022 142.554993 84.634903 144.578995 89.921997 C 149.369995 85.750198 154.863998 82.074005 161.100998 80.710907 C 167.378998 79.347809 174.690002 80.669601 179.192993 85.54361 C 184.438004 91.450302 183.901001 100.042 181.339996 106.940002 Z M 59.8615 188.682999 C 58.5397 187.072006 57.217899 186.162994 56.102699 186.162994 C 55.9375 186.162994 55.772202 186.205002 55.565701 186.246002 C 53.169998 186.906998 51.930801 192.442001 53.8722 199.669998 C 55.813499 206.899002 59.696201 211.070999 62.091999 210.410004 C 64.487701 209.748993 65.726799 204.255005 63.7855 197.108994 C 61.926701 197.067993 60.068001 197.026993 58.209202 197.026993 C 57.4244 197.026993 57.4244 195.787994 58.209202 195.787994 C 59.944099 195.828995 61.678902 195.828995 63.4137 195.869995 C 62.546299 193.020004 61.307098 190.5 59.8615 188.682999 Z M 131.320007 193.888 C 133.095993 194.630997 134.830994 195.457001 136.524002 196.406998 C 137.225998 196.779007 136.606995 197.852997 135.904999 197.481003 C 134.376007 196.654999 132.848007 195.869995 131.237 195.209 C 131.195999 197.688004 131.485001 200.042007 132.104996 201.942001 C 132.848007 204.255005 133.962997 205.617996 135.244003 205.742004 C 136.483002 205.865997 137.886993 204.751007 139.085007 202.643997 C 140.365997 200.371994 141.274002 197.233002 141.645996 193.804993 C 142.431 186.369995 140.283005 181.082993 137.804993 180.835007 C 137.722 180.835007 137.681 180.835007 137.598007 180.835007 C 135.160995 180.835007 132.145996 185.503006 131.401993 192.772003 C 131.401993 193.143997 131.360992 193.516006 131.320007 193.888 Z M 116.037003 67.988892 C 115.292999 71.251999 114.674004 74.556503 114.219002 77.860901 C 112.608002 89.550301 112.815002 101.487 114.838997 113.094002 C 114.879997 113.259003 114.838997 113.383003 114.755997 113.507004 C 115.582001 113.754997 116.366997 114.002998 117.193001 114.250999 C 116.697998 111.194 116.285004 108.138 115.995003 105.040001 C 114.962997 93.102501 115.830002 81 118.514999 69.310608 C 118.68 68.525803 119.877998 68.856293 119.712997 69.641098 C 118.969002 72.904205 118.349998 76.20871 117.894997 79.513092 C 116.325996 90.706902 116.490997 102.148003 118.266998 113.301003 C 118.969002 112.639999 119.629997 111.978996 120.291 111.277 C 121.116997 110.367996 122.026001 109.376999 122.398003 108.138 C 122.439003 108.014 122.480003 107.848 122.480003 107.724998 C 122.233002 107.931 121.943001 108.096001 121.571999 108.179001 C 120.622002 108.468002 119.424004 108.220001 118.845001 107.352997 C 118.225998 106.403 118.598 105.246002 119.424004 104.584999 C 120.332001 103.883003 121.488998 103.842003 122.398003 104.543999 C 122.522003 104.626999 122.646004 104.750999 122.768997 104.875 C 122.975998 104.130997 123.058998 103.388 123.099998 102.684998 C 123.306 99.9179 122.603996 97.150497 121.199997 94.796097 C 120.787003 94.093903 121.861 93.474297 122.274002 94.176498 C 122.975998 95.333099 123.513 96.572197 123.843002 97.8526 C 124.545998 100.372002 124.669998 103.346001 123.761002 105.782997 C 123.720001 105.947998 123.637001 106.113998 123.554001 106.278999 C 123.678001 106.651001 123.720001 107.064003 123.720001 107.476997 C 123.637001 108.880997 122.892998 110.120003 122.026001 111.153 C 120.952003 112.474998 119.712997 113.589996 118.473999 114.788002 C 118.514999 115.241997 118.101997 115.530998 117.730003 115.530998 C 117.524002 115.737999 117.317001 115.986 117.111 116.192001 C 115.624001 117.844002 114.384003 119.827003 114.508003 122.139999 C 114.632004 124.412003 116.119003 126.518997 117.977997 127.758003 C 120.084999 129.162003 122.646004 129.533997 125.083 128.996994 C 130.617996 127.839996 134.417999 123.337997 137.350006 118.835999 C 138.919998 116.440002 140.406998 114.002998 141.770004 111.483002 C 143.132996 108.921997 144.289993 106.278999 144.785004 103.388 C 145.776993 97.769997 144.207001 91.904701 141.563004 86.906708 C 139.292007 82.652298 136.110992 78.934799 132.393997 75.878204 C 127.684998 71.995499 122.026001 69.269302 116.037003 67.988892 Z M 121.405998 105.370003 C 120.704002 105.081001 119.341003 105.906998 119.960999 106.733002 C 120.580002 107.558998 121.819 106.898003 122.233002 106.278999 C 122.233002 106.237999 122.274002 106.237999 122.274002 106.195999 C 122.109001 105.824997 121.819 105.535004 121.405998 105.370003 Z M 61.389801 85.213196 C 65.933296 80.173889 71.303101 75.919495 76.837997 71.954193 C 76.301003 70.714996 76.177101 69.310699 76.631401 68.030197 C 77.127098 66.625793 78.2836 65.551804 79.6054 64.973511 C 75.846603 61.792999 71.963898 53.903702 75.3097 49.814499 C 79.688004 44.444794 85.181602 46.799194 86.462097 39.405609 C 90.138298 41.346893 90.386101 46.551392 89.105598 48.410202 C 88.692596 49.029694 88.196899 49.525391 87.742599 49.9384 C 88.899101 50.021103 90.055702 50.268906 91.170898 50.640594 C 92.864403 51.260193 94.475304 52.169006 96.127502 52.953796 C 97.821098 53.779907 99.473297 54.606003 101.167 55.432098 C 104.306 57.001709 107.445 58.571304 110.625999 60.099609 C 110.956001 60.264801 111.039001 60.843109 110.75 61.090897 C 108.271004 63.197495 105.792999 65.304001 103.273003 67.369293 C 103.439003 67.864899 103.644997 68.319305 103.809998 68.815002 C 105.958 74.391205 108.106003 79.967407 110.212997 85.54361 C 110.336998 85.915405 110.129997 86.163208 109.841003 86.245789 C 109.345001 88.434998 108.271004 90.417702 106.825996 92.111198 C 103.892998 95.580902 99.431999 97.563499 94.929703 97.315598 C 90.386101 97.067802 85.9664 94.796097 83.322899 91.078598 C 83.240303 90.954697 83.198997 90.830704 83.198997 90.7481 C 83.1577 90.665497 83.1577 90.582901 83.1577 90.459 C 83.240303 85.213196 83.1577 80.008789 82.951202 74.763 C 82.496803 74.886902 82.001099 74.969498 81.505501 74.969498 C 80.720703 74.969498 79.894501 74.804291 79.192398 74.432495 C 78.531502 74.102097 77.953201 73.6064 77.498802 72.986801 C 75.764 74.225998 74.070503 75.465103 72.376999 76.786896 C 72.459602 76.828201 72.542198 76.869507 72.624802 76.952103 C 74.937897 79.47171 77.044502 82.197906 78.944504 85.048004 C 82.290298 90.087196 84.975098 95.580902 86.957802 101.280998 C 88.857803 106.816002 90.014397 112.598999 90.468697 118.422997 C 91.8731 117.886002 93.236198 117.348999 94.599297 116.728996 C 98.275398 115.117996 101.992996 113.383003 105.958 112.723 C 107.858002 112.391998 109.758003 112.350998 111.657997 112.681 C 112.319 112.805 112.939003 112.929001 113.557999 113.094002 C 112.980003 109.831001 112.567001 106.568001 112.278 103.305 C 111.245003 91.408997 112.112999 79.347809 114.755997 67.658401 C 111.781998 67.121399 108.725998 66.956207 105.668999 67.162811 C 104.884003 67.204102 104.884003 65.964905 105.668999 65.923599 C 106.825996 65.841003 108.023003 65.799698 109.18 65.841003 C 113.599998 65.964905 117.977997 66.873703 122.109001 68.443298 C 119.341003 63.817108 116.573997 59.190796 113.806 54.564606 C 109.387001 47.171005 104.967003 39.777405 100.588997 32.425003 C 100.134003 31.681503 99.7211 30.813995 98.9776 30.2771 C 98.316704 29.822693 97.449303 29.740097 96.664497 29.863998 C 94.847099 30.153107 93.194901 31.144501 91.584 31.970596 C 88.114304 33.705399 84.685997 35.522903 81.298897 37.422897 C 74.524902 41.222992 67.916 45.353607 61.513699 49.7733 C 55.235298 54.110291 49.163399 58.736496 43.339298 63.651794 C 45.156799 65.799698 46.932899 67.947601 48.750301 70.09549 C 53.004799 75.175995 57.217899 80.173889 61.389801 85.213196 Z M 85.2229 120.280998 C 86.585999 119.867996 87.949097 119.414001 89.270897 118.959999 C 89.023003 115.696999 88.568703 112.432999 87.866501 109.211998 C 86.585999 103.388 84.562103 97.769997 81.835899 92.482903 C 79.109802 87.237198 75.764 82.321808 71.757401 77.943497 C 71.633499 77.819611 71.592201 77.654297 71.592201 77.530396 C 71.096497 77.943497 70.559502 78.356506 70.063904 78.769592 C 71.963898 81.413101 73.863998 84.056702 75.681396 86.741501 C 82.207603 96.489601 87.5774 108.220001 85.2229 120.280998 Z M 83.1577 65.427902 C 83.075104 65.758392 82.744598 65.964905 82.4142 65.923599 C 80.555496 65.551804 78.448898 66.708405 77.8293 68.484497 C 77.209702 70.26059 78.077103 72.532501 79.770599 73.399902 C 81.464203 74.267303 83.818604 73.688995 84.892502 72.160706 C 85.098999 71.871597 85.470802 71.8302 85.759903 71.995499 C 86.049004 72.201996 86.090401 72.573792 85.925102 72.8629 C 85.470802 73.523804 84.892502 74.019409 84.1903 74.391205 C 84.438103 79.760895 84.479401 85.171906 84.438103 90.541603 C 85.801201 92.483002 87.701302 93.928596 89.849098 94.919899 C 93.690498 96.654701 98.192802 96.6548 101.910004 94.630798 C 105.462997 92.730797 108.106003 89.302498 108.849998 85.295898 C 108.436996 84.180603 107.982002 83.065308 107.569 81.950104 C 105.709999 77.075989 103.851997 72.243301 101.952003 67.369293 C 101.869003 67.162811 101.952003 66.873596 102.116997 66.749695 C 104.471001 64.766998 106.866997 62.784393 109.221001 60.801804 C 107.776001 60.099609 106.371002 59.397308 104.967003 58.695206 C 101.828003 57.125595 98.729797 55.555908 95.590599 54.027603 C 94.888397 53.697205 94.186203 53.3255 93.442703 52.953796 C 93.566597 53.077698 93.690498 53.201508 93.8144 53.3255 C 94.021004 53.614594 94.062302 53.945099 93.8144 54.192902 C 93.607903 54.440704 93.153603 54.440704 92.946999 54.192902 C 92.823097 54.027695 92.699203 53.903809 92.533997 53.779907 C 92.492699 53.738602 92.492699 53.738602 92.451401 53.697296 C 92.368797 53.656006 92.286102 53.573303 92.203499 53.531998 C 92.162201 53.531998 92.120903 53.490692 92.079597 53.490692 L 92.0383 53.490692 C 91.955704 53.449402 91.8731 53.449402 91.790497 53.408096 C 91.749199 53.408096 91.749199 53.408096 91.707901 53.408096 C 91.666603 53.408096 91.666603 53.408096 91.666603 53.408096 C 91.625298 53.408096 91.584 53.408096 91.542702 53.408096 C 91.542702 53.408096 91.542702 53.408096 91.501404 53.408096 C 91.460098 53.408096 91.460098 53.408096 91.501404 53.408096 C 91.4188 53.408096 91.2948 53.449402 91.253502 53.449402 C 91.212196 53.449402 91.170898 53.490692 91.170898 53.490692 C 91.129601 53.490692 91.088303 53.531998 91.088303 53.573303 L 91.046997 53.614594 L 91.005699 53.655899 C 91.005699 53.655899 91.005699 53.656006 91.005699 53.697296 C 91.005699 53.738602 90.964401 53.779907 90.964401 53.779907 C 90.964401 53.821198 90.923103 53.862503 90.923103 53.903809 C 90.923103 53.945099 90.923103 54.027695 90.923103 53.945007 C 90.923103 53.862396 90.923103 53.986404 90.923103 54.069 C 90.923103 54.110291 90.923103 54.110291 90.923103 54.151596 C 90.923103 54.192902 91.005699 54.316803 90.923103 54.151596 C 91.046997 54.481995 91.005699 54.8125 90.716499 55.018997 C 90.468697 55.184204 90.014397 55.101593 89.849098 54.8125 C 89.601303 54.275497 89.601303 53.697205 89.890404 53.201508 C 90.138298 52.705902 90.633904 52.375504 91.129601 52.251602 C 91.377403 52.210297 91.625298 52.1689 91.831802 52.210205 C 90.014397 51.4254 88.072998 50.929794 86.049103 51.260193 C 85.9664 51.260193 85.925102 51.260193 85.842499 51.260193 C 84.107697 52.210205 82.7033 53.036301 83.033798 56.340805 C 83.281601 58.777802 85.057701 61.338699 83.075104 64.477905 L 82.662003 64.684402 C 82.7033 64.684402 82.785896 64.684509 82.827202 64.7258 C 82.9925 64.76709 83.198997 65.056198 83.1577 65.427902 Z M 54.822201 128.376999 C 55.896099 130.235992 57.176601 131.970993 58.622299 133.582001 C 60.068001 135.151001 61.7202 136.720993 63.826801 137.257996 C 66.1399 137.876999 68.576897 137.134003 70.7248 136.225006 C 71.839996 135.770996 72.914001 135.233994 73.9879 134.697006 C 74.979202 134.201004 75.970497 133.664001 76.7966 132.921005 C 77.994499 131.888 78.985802 130.524994 78.655403 128.873001 C 78.366302 127.510002 77.581497 126.271004 77.0858 124.989998 C 76.5075 123.420998 76.383598 121.809998 77.003197 120.198997 C 77.416199 119.166 77.994499 118.216003 78.200996 117.141998 C 78.366302 116.027 78.118401 114.912003 77.746696 113.837997 C 76.961899 111.690002 75.557503 109.872002 74.814003 107.724998 C 74.153099 105.782997 73.946602 103.594002 75.144402 101.818001 C 75.598801 101.156998 76.672699 101.777 76.218399 102.438004 C 75.640099 103.305 75.433601 104.295998 75.516197 105.329002 C 75.887901 109.873001 80.844597 113.507004 79.192398 118.339996 C 78.820602 119.373001 78.242302 120.322998 77.953201 121.397003 C 77.911903 121.602997 77.870598 121.809998 77.870598 122.015999 C 79.481499 121.726997 81.0924 121.397003 82.7033 120.984001 C 83.198997 120.860001 83.694702 120.736 84.1903 120.612 C 84.066399 120.487999 84.025101 120.280998 84.066399 120.074997 C 84.727303 116.852997 84.7686 113.549004 84.355499 110.327003 C 82.909798 98.678703 75.929298 88.806702 69.196503 79.554398 C 65.065903 83.065308 61.2658 86.947998 58.126598 91.408997 C 53.087399 98.637398 49.906898 107.352997 50.856899 116.234001 C 51.27 120.446999 52.674301 124.660004 54.822201 128.376999 Z M 81.298897 137.876999 C 81.381599 138.001007 81.340202 137.753998 81.216301 137.919006 L 81.175003 137.960007 C 81.0924 138.125 81.175003 138.332001 81.298897 138.496994 C 82.579399 138.537994 83.859901 138.580002 85.140297 138.621002 C 84.975098 138.496994 84.851196 138.291 84.809898 138.084 C 84.4795 135.192993 82.001099 132.632004 79.1511 132.218994 C 77.911903 134.076996 75.887901 135.192993 73.905296 136.143005 C 71.716103 137.216995 69.444298 138.332001 67.007301 138.662003 C 66.222504 138.785995 65.437698 138.785995 64.652901 138.662003 C 66.098602 140.315002 67.750801 141.802002 69.609497 142.998993 C 70.518303 143.578003 71.509598 144.279999 72.583504 144.485992 C 73.079201 144.610001 73.533501 144.569 73.863998 144.197006 C 74.194397 143.867004 74.4422 143.453995 74.855301 143.205994 C 75.929199 142.585999 76.961899 143.412003 77.870598 143.949005 C 78.696701 144.445007 79.729301 144.610001 80.679398 144.279999 C 81.546799 143.990997 82.166298 143.205994 82.249001 142.296997 C 82.290298 141.843002 82.249001 141.347 82.001099 140.934006 C 81.753304 140.479996 81.298897 140.190994 80.9272 139.901001 C 80.183701 139.281998 79.481499 138.084 80.224998 137.175003 C 80.762001 136.514008 81.918503 136.473007 82.372902 137.257996 C 82.785896 137.919006 81.711998 138.537994 81.298897 137.876999 Z M 89.064301 153.531998 C 91.501404 153.242996 93.9384 153.283997 96.375397 153.449997 C 96.747101 152.664993 97.325401 152.003998 98.027603 151.591003 C 97.242798 151.591003 97.284103 150.393005 98.068901 150.352005 C 98.688499 150.309998 99.349403 150.352005 99.969002 150.475998 C 99.927696 149.401993 99.845001 148.285995 99.803703 147.212997 C 98.440697 147.378006 97.036301 147.089005 95.920998 146.304001 C 93.979698 144.981995 92.988297 142.462006 93.442703 140.190994 C 89.849098 140.067001 86.2556 139.942993 82.662003 139.860001 C 82.744598 139.942993 82.785896 139.983994 82.8685 140.067001 C 83.488098 140.893005 83.653297 141.966995 83.405502 142.957993 C 82.909798 144.981995 80.885902 146.014999 78.903198 145.725006 C 78.366302 145.643005 77.870598 145.477997 77.416199 145.229996 C 76.961899 144.981995 76.548798 144.569 76.0532 144.404007 C 75.516197 144.197006 75.268402 144.569 74.937897 144.940994 C 74.607498 145.311996 74.235703 145.602005 73.740097 145.766998 C 72.748703 146.056 71.674797 145.643005 70.766098 145.188995 C 69.733398 144.651993 68.783401 144.031998 67.833397 143.371002 C 65.974602 142.007996 64.322403 140.397003 62.876701 138.580002 C 62.794102 138.496994 62.7528 138.414001 62.7528 138.332001 C 61.926701 138.042999 61.183201 137.630005 60.439701 137.093002 C 58.622299 135.770996 57.1353 134.035995 55.813499 132.259995 C 54.491798 130.483994 53.335201 128.542007 52.385201 126.518997 C 52.178699 126.105003 52.013401 125.651001 51.8069 125.196999 C 47.635101 125.403 43.5872 127.138 40.4067 129.906006 C 36.689201 133.085999 34.252201 137.423004 33.260799 142.214996 C 32.186901 147.419006 32.847801 152.871002 34.5826 157.869003 C 38.0522 167.906998 45.941601 175.671997 54.202599 182.033005 C 60.522301 178.149994 67.544296 175.423996 74.814003 173.936996 C 74.648804 172.490997 74.359596 171.046005 74.111801 169.600006 C 73.9879 169.186996 73.905296 168.815002 73.781403 168.401993 L 67.957298 155.018997 C 66.924698 153.119003 65.8507 151.218994 64.8181 149.319 C 64.446404 148.617004 65.478996 147.996994 65.892097 148.699997 C 66.800797 150.352005 67.750801 152.003998 68.618202 153.656006 C 70.559502 157.25 72.376999 160.884995 73.822701 164.725998 C 74.070503 162.908997 74.814003 161.255997 76.094498 159.768997 C 79.398903 155.927994 84.272903 154.069 89.064301 153.531998 Z M 100.546997 163.322006 C 100.422997 162.578003 100.299004 161.835007 100.217003 161.091003 C 99.638496 161.009003 99.060204 160.761002 98.5233 160.389008 C 96.705803 159.108002 95.755798 156.794998 96.044998 154.606003 C 94.1036 154.481995 92.203598 154.440994 90.262199 154.606003 C 86.8339 154.895004 83.281601 155.804001 80.3489 157.703995 C 85.140297 160.966995 90.799202 162.949997 96.540604 163.322006 C 97.862396 163.404007 99.225403 163.404007 100.546997 163.322006 Z M 92.0383 190.666 C 92.0383 190.169998 92.0383 189.673996 92.0383 189.179001 C 92.0383 188.393997 92.0383 187.649994 92.079597 186.906998 C 88.610001 186.947998 85.140297 187.485001 81.753304 188.434998 C 81.6707 188.477005 81.546799 188.477005 81.464104 188.434998 C 81.422798 189.673996 81.381599 190.914001 81.298897 192.153 C 84.851196 191.367996 88.444801 190.914001 92.0383 190.666 Z M 102.033997 164.891006 C 102.116997 165.427994 102.198997 166.005997 102.281998 166.542999 C 102.322998 166.873993 102.198997 167.203995 101.869003 167.287003 C 101.580002 167.369995 101.167 167.203995 101.125999 166.873993 C 101.001999 166.130005 100.877998 165.345993 100.753998 164.602005 C 97.407997 164.850006 93.897102 173.110992 93.3601 185.626007 C 95.8797 185.667999 98.440697 185.957001 100.918999 186.453003 C 101.704002 186.617996 101.373001 187.815994 100.588997 187.649994 C 98.192802 187.154999 95.755798 186.906998 93.318802 186.865997 C 93.277496 187.608994 93.277496 188.393997 93.277496 189.136993 C 93.277496 189.632996 93.277496 190.087006 93.277496 190.542007 C 94.764503 190.459 96.251503 190.417999 97.738503 190.417999 C 98.5233 190.417999 98.5233 191.656998 97.738503 191.656998 C 96.251503 191.656998 94.764503 191.697998 93.277496 191.781006 C 93.731796 204.998993 97.407997 213.673004 100.877998 213.673004 C 104.595001 213.673004 108.518997 203.800995 108.518997 189.095993 C 108.559998 175.960999 105.379997 166.626007 102.033997 164.891006 Z M 103.026001 153.326004 C 102.529999 152.789001 101.910004 152.376007 101.249001 152.087006 C 101.249001 152.128006 101.208 152.210007 101.167 152.251999 C 101.042999 152.417007 100.877998 152.5 100.629997 152.457993 C 100.546997 152.457993 100.422997 152.417007 100.341003 152.376007 C 99.514603 152.169006 98.647202 152.457993 98.027603 153.037003 C 97.325401 153.738998 97.118896 154.813004 97.2015 155.804001 C 97.325401 157.414993 98.358002 159.190994 99.927597 159.768997 C 100.093002 159.811005 100.258003 159.852005 100.422997 159.893005 C 100.464996 159.852005 100.505997 159.852005 100.546997 159.811005 C 100.711998 159.768997 100.918999 159.811005 101.084 159.893005 C 102.281998 159.811005 103.397003 158.985001 103.933998 157.869003 C 104.678001 156.423996 104.140999 154.481995 103.026001 153.326004 Z M 123.843002 143.578003 C 123.348 143.783997 122.810997 143.949005 122.274002 143.949005 C 120.787003 143.990997 119.424004 143.205994 118.390999 142.173004 C 117.730003 143.330002 116.366997 144.115005 115.003998 143.908005 C 114.095001 143.783997 113.268997 143.205994 112.732002 142.462006 C 112.112999 143.205994 111.163002 143.701996 110.170998 143.701996 C 108.477997 143.660004 107.114998 142.337997 106.495003 140.809998 C 106.371002 140.479996 106.289001 140.190994 106.206001 139.860001 C 105.296997 139.983994 104.347 140.108002 103.439003 140.315002 C 103.480003 141.223007 103.480003 142.091003 103.521004 142.998993 C 103.521004 143.494995 103.561996 143.990997 103.561996 144.485992 C 103.561996 144.981995 103.563004 145.270996 103.191002 145.643005 C 102.570999 146.220993 101.786003 146.634003 100.959999 146.923004 C 101.042999 148.203995 101.084 149.483994 101.167 150.764999 C 102.612 151.259995 103.892998 152.169006 104.678001 153.531998 C 104.843002 153.779999 104.967003 154.028 105.050003 154.317001 C 105.751999 154.399994 106.454002 154.440994 107.155998 154.524002 C 111.121002 154.813004 115.210999 154.647003 118.845001 153.119003 C 120.291 150.352005 121.737 147.584 123.223999 144.776001 C 123.43 144.404007 123.637001 143.990997 123.843002 143.578003 Z M 126.983002 137.835999 C 126.735001 137.009995 125.949997 136.348999 125.083 136.307999 C 124.586998 136.266998 124.174004 135.606003 124.627998 135.233994 C 126.197998 133.994995 127.932999 132.673004 128.675995 130.772995 C 128.882996 130.153 129.007004 129.574997 129.007004 128.955994 C 128.345993 129.285995 127.684998 129.574997 126.983002 129.781998 C 124.627998 130.565994 121.943001 130.731995 119.588997 129.863998 C 117.441002 129.078995 115.541 127.551003 114.426003 125.569 C 113.268997 123.544998 113.063004 121.149002 113.93 119.000999 C 114.467003 117.597 115.375999 116.399002 116.366997 115.282997 C 114.302002 114.705002 112.278 113.919998 110.170998 113.796997 C 106.165001 113.549004 102.240997 114.912003 98.605904 116.440002 C 94.888397 117.968002 91.253502 119.662003 87.4534 120.901001 C 84.355499 121.891998 81.175003 122.677002 77.953201 123.254997 C 77.994499 123.420998 77.994499 123.544998 78.035797 123.709999 C 78.4076 125.155998 79.233704 126.435997 79.729301 127.882004 C 80.101097 128.955994 80.142403 130.070999 79.811897 131.102997 C 83.1577 131.847 85.759903 134.697006 86.172997 138.084 C 86.214302 138.332001 86.007698 138.537994 85.801201 138.621002 C 88.651299 138.703995 91.501404 138.785995 94.310097 138.910004 C 94.6819 138.910004 95.053596 139.281998 94.888397 139.695007 C 94.186203 141.677994 94.888397 144.115005 96.705803 145.270996 C 97.614502 145.848999 98.729797 146.056 99.803703 145.932007 C 99.762398 145.229996 100.670998 145.147003 100.959999 145.643005 C 101.497002 145.436005 101.992996 145.147003 102.446999 144.733994 C 102.405998 143.082001 102.364998 141.429993 102.281998 139.778 C 102.281998 139.529999 102.488998 139.240997 102.736 139.199005 C 103.892998 138.992996 105.049004 138.785995 106.206001 138.662003 C 106.206001 137.341003 106.536003 135.977005 106.949997 134.738007 C 108.147003 130.897003 110.170998 127.345001 112.774002 124.247002 C 113.268997 123.626999 114.178001 124.536003 113.640999 125.113998 C 112.443001 126.559998 111.369003 128.087997 110.459999 129.740005 C 109.676003 131.186005 108.973999 132.673004 108.436996 134.201004 C 107.858002 135.811996 107.279999 137.587997 107.487 139.322998 C 107.652 140.645004 108.477997 142.091003 109.841003 142.421005 C 110.791 142.669006 111.988998 142.007996 112.195 141.016998 C 112.153999 140.768997 112.153999 140.520996 112.153999 140.231995 C 112.237 139.570999 113.227997 139.322998 113.351997 140.067001 C 113.392998 140.356003 113.433998 140.604004 113.392998 140.893005 C 113.557999 141.759995 114.219002 142.585999 115.168999 142.710007 C 116.325996 142.875 117.400002 141.966995 117.606003 140.852005 C 117.689003 140.438004 118.349998 140.231995 118.639 140.561996 C 119.464996 141.595001 120.622002 142.628006 122.026001 142.710007 C 123.182999 142.792999 124.421997 142.091003 124.669998 140.893005 C 124.710999 140.604004 125 140.479996 125.248001 140.438004 C 125.330002 140.438004 125.454002 140.397003 125.537003 140.356003 C 125.949997 139.529999 126.403999 138.621002 126.983002 137.835999 Z M 181.835999 100.042 C 182.289993 96.3657 181.876999 92.482903 180.059998 89.178497 C 178.449005 86.245789 175.806 84.097992 172.748993 82.900101 C 166.057007 80.256592 158.828995 81.991394 152.798996 85.54361 C 150.031006 87.195801 147.386993 89.137199 144.908997 91.285103 C 146.313995 95.415703 146.809006 99.752701 145.983002 104.089996 C 145.445999 106.857002 144.330994 109.459 143.009003 111.938004 C 141.686996 114.457001 140.158997 116.893997 138.589005 119.290001 C 136.358994 122.760002 133.673996 126.147003 130.162994 128.294998 C 130.328003 129.410004 130.121994 130.565994 129.626007 131.639999 C 128.923996 133.169006 127.684998 134.367004 126.362999 135.399002 C 127.024002 135.729996 127.560997 136.225006 127.890999 136.845001 C 128.427994 136.432007 129.089005 136.143005 129.791 136.059998 C 131.031006 135.895004 132.270004 136.225006 133.468002 136.473007 C 138.630997 137.630005 143.587006 139.447006 148.255005 141.925003 C 148.296005 141.925003 148.296005 141.966995 148.337997 141.966995 C 151.434998 142.339005 154.533005 142.214996 157.548996 141.098999 C 161.182999 139.735992 163.578995 136.804001 165.602997 133.623001 C 167.875 130.070999 169.981995 126.435997 172.046997 122.760002 C 174.112 119.084 176.136002 115.406998 177.953003 111.607002 C 179.770996 108.014 181.339996 104.130997 181.835999 100.042 Z M 79.398903 68.319305 C 79.109703 68.484497 79.0271 68.897598 79.192398 69.186798 C 79.357597 69.475891 79.729301 69.558502 80.059799 69.393311 C 81.298897 68.773697 82.8685 68.773697 84.107697 69.35199 C 84.396797 69.475891 84.7686 69.434601 84.975098 69.145401 C 85.140297 68.856293 85.057701 68.443207 84.7686 68.278 C 83.033699 67.493195 81.0924 67.493195 79.398903 68.319305 Z M 85.388199 59.727798 C 88.486099 58.529907 91.501404 57.208191 94.516602 55.762497 C 95.218803 55.432098 95.8797 56.505997 95.1362 56.836395 C 94.723198 57.042908 94.351402 57.208191 93.9384 57.373398 C 93.979698 57.414703 94.062302 57.455994 94.1036 57.497299 C 94.227501 57.621307 94.268799 57.745102 94.351402 57.869003 C 94.433998 58.075592 94.433998 58.282104 94.3927 58.488602 C 94.351402 58.695206 94.227501 58.901703 94.062302 59.025604 C 93.897102 59.190796 93.690498 59.314804 93.484001 59.356094 C 93.277496 59.3974 93.029602 59.438705 92.823097 59.356094 C 92.575302 59.273499 92.368797 59.108307 92.203499 58.860397 C 92.079597 58.6539 92.0383 58.406006 92.079597 58.158203 C 90.964401 58.653809 89.890404 59.149506 88.7752 59.603897 C 88.816498 59.645203 88.857803 59.727798 88.899101 59.769104 C 88.940399 59.8517 88.981697 59.975601 89.023003 60.058304 C 89.064301 60.1409 89.064301 60.264801 89.064301 60.388702 C 89.064301 60.5952 89.023003 60.801804 88.899101 61.008301 C 88.857803 61.049591 88.857803 61.090897 88.816498 61.132202 C 88.7752 61.173492 88.7752 61.214798 88.733902 61.256104 C 88.651299 61.338699 88.568703 61.380005 88.486099 61.421295 C 88.403397 61.462708 88.362099 61.503906 88.279503 61.503906 C 88.196899 61.503906 88.114304 61.545303 88.0317 61.545303 C 87.990402 61.545303 87.907799 61.545303 87.866501 61.545303 C 87.742599 61.545303 87.660004 61.503906 87.536003 61.462601 C 87.4534 61.421295 87.329498 61.380096 87.246902 61.338806 C 87.205597 61.297501 87.123001 61.256104 87.081703 61.214798 C 87.040398 61.173492 86.9991 61.090805 86.957802 61.0495 C 86.875198 60.966904 86.875099 60.843002 86.833801 60.760406 L 86.833801 60.719208 C 86.833801 60.719208 86.833801 60.719101 86.833801 60.677795 C 86.833801 60.5952 86.792503 60.512604 86.792503 60.429993 C 86.462097 60.553894 86.090401 60.719101 85.759903 60.843002 C 84.975098 61.214798 84.644699 60.016907 85.388199 59.727798 Z M 87.990402 60.429993 C 87.990402 60.429993 87.990402 60.471298 88.0317 60.471298 C 87.990402 60.429993 87.990402 60.429993 87.990402 60.429993 Z M 84.7686 58.116898 C 85.718597 57.745209 86.668602 57.414703 87.618599 57.042908 C 87.907799 56.919006 88.155602 56.629898 88.0317 56.299408 C 87.949097 56.0103 87.5774 55.762497 87.2882 55.886398 C 86.338203 56.258102 85.388199 56.588593 84.438103 56.960403 C 84.149002 57.084305 83.901199 57.373398 84.025101 57.703903 C 84.066399 57.992996 84.438103 58.240799 84.7686 58.116898 Z M 91.377403 53.449402 C 91.377403 53.408096 91.377403 53.408096 91.377403 53.449402 L 91.377403 53.449402 Z M 93.194901 74.969498 C 93.070999 74.969498 92.946999 74.969498 92.823097 74.969498 C 92.823097 74.969498 92.740501 74.969498 92.699203 74.969498 C 92.657898 74.969498 92.6166 74.969498 92.575302 74.928192 C 92.327499 74.886902 92.079597 74.804291 91.8731 74.721603 C 91.542702 74.597702 91.005699 74.308594 90.757797 74.102097 C 90.5513 73.936798 90.386101 73.771606 90.220901 73.6064 C 90.138298 73.523804 90.055702 73.441193 89.973099 73.317291 C 89.890404 73.234711 89.973 73.3172 89.931702 73.234589 C 89.890404 73.193298 89.849098 73.110703 89.8078 73.069397 C 89.5187 72.615097 89.3535 72.284607 89.229599 71.78891 C 89.147003 71.458496 88.7752 71.251999 88.486099 71.3759 C 88.155602 71.458496 87.990402 71.830292 88.072998 72.1194 C 88.651299 74.432495 90.881798 76.167297 93.236198 76.167297 C 93.979698 76.208603 93.979698 74.969498 93.194901 74.969498 Z"/>
    <path id="path4" fill="#9ed5f0" stroke="none" d="M 116.244003 163.156006 C 115.707001 158.654007 117.896004 153.904007 121.654999 151.384003 C 125.413002 148.863998 130.658997 148.615997 134.623993 150.806 C 138.589996 152.994995 141.192001 157.537994 141.067993 162.082001"/>
    <path id="path5" fill="#9ed5f0" stroke="none" d="M 58.044201 196.903 C 56.639801 192.979004 58.498501 188.186996 61.596401 185.957001 C 64.653 183.725998 68.577003 183.561005 72.129303 184.386993 C 74.814102 184.964996 77.499001 186.162994 79.316399 188.518005 C 81.133904 190.912994 81.753403 194.714005 80.1838 197.315994 L 79.977303 197.067993 C 72.955399 196.324005 65.892197 196.035004 58.8703 196.242004"/>
</svg>
